<?xml version="1.0" encoding="UTF-8"?>
<svg xmlns="http://www.w3.org/2000/svg" xmlns:xlink="http://www.w3.org/1999/xlink" id="Capa_2" data-name="Capa 2" viewBox="0 0 185.13 22.13">
  <defs>
    <style>
      .cls-1, .cls-2 {
        fill: none;
      }

      .cls-3 {
        fill: #242b57;
      }

      .cls-2 {
        clip-path: url(#clippath);
      }
    </style>
    <clipPath id="clippath">
      <polyline class="cls-1" points="138.64 11.75 149.96 2.12 155.68 2.12 146.81 9.61 156.2 21.1 150.97 21.1 143.62 12.18 138.64 16.39"></polyline>
    </clipPath>
  </defs>
  <g id="Capa_1-2" data-name="Capa 1">
    <g id="Capa_1-2" data-name="Capa 1-2">
      <g>
        <path class="cls-3" d="m73.96,2.12v9.8c0,5.56-3.7,9.33-10.45,9.33s-10.45-3.76-10.45-9.33V2.12h4.26v9.49c0,3.71,2.18,5.94,6.2,5.94s6.2-2.23,6.2-5.94V2.12h4.26-.02Z"></path>
        <path class="cls-3" d="m118.64,21.1l-5.47-6.45h-6.89v6.45h-4.33V2.12h13.15c4.66,0,8.17,2.14,8.17,6.26,0,3.23-2.15,5.23-5.31,5.97l5.88,6.75h-5.2Zm-3.78-10.03c2.29,0,3.98-.54,3.98-2.66s-1.69-2.66-3.98-2.66h-8.6v5.32h8.6Z"></path>
        <path class="cls-3" d="m128.48,21.1V2.12h4.36v18.98s-4.36,0-4.36,0Z"></path>
        <path class="cls-3" d="m178.38,17.09h-11.52l-2.04,4.01h-4.66l10.1-18.98h4.77l10.1,18.98h-4.71l-2.04-4.01h0Zm-1.83-3.52l-3.95-7.73-3.95,7.73h7.9Z"></path>
        <g>
          <polyline class="cls-3" points="138.64 11.75 149.96 2.12 155.68 2.12 146.81 9.61 156.2 21.1 150.97 21.1 143.62 12.18 138.64 16.39"></polyline>
          <g class="cls-2">
            <rect class="cls-3" x="138.67" y=".11" width="20.94" height="27.33"></rect>
          </g>
        </g>
        <path class="cls-3" d="m91.6,11.19c2.84-.19,4.25-2.04,4.25-4.21,0-3.07-2.88-4.86-7.47-4.86h-8.73v3.42h8.02c2.37,0,3.85.41,3.85,2.15s-1.47,2.15-3.85,2.15h-8.02v3.31h8.92c2.45,0,3.9.35,3.9,2.28s-1.45,2.28-3.9,2.28h-8.92v3.42h9.82c4.58,0,7.47-1.85,7.47-5.22,0-3.02-2.35-4.56-5.35-4.73h0Z"></path>
        <path class="cls-3" d="m42.75,14.32c3.16-.73,5.32-2.74,5.32-5.98,0-4.13-3.52-6.28-8.18-6.28h-8.77l-.02,3.64h8.54c2.29,0,3.98.54,3.98,2.66s-1.69,2.66-3.98,2.66h-8.57l-.02,3.59h6.9l5.48,6.46h5.21l-5.89-6.76h0Z"></path>
      </g>
    </g>
    <g id="Capa_1-2-2" data-name="Capa 1-2">
      <g>
        <path class="cls-3" d="m.82,13.82l-.32-.28-.12.41c-.15.53-.27,1.05-.34,1.55l-.02.16.13.1c.4.3.85.59,1.34.86l.38.21.03-.43c.03-.46.11-.93.22-1.42l.05-.19-.17-.1c-.43-.26-.82-.55-1.17-.85v-.02Z"></path>
        <path class="cls-3" d="m21.42,8.33l.32.28.12-.41c.15-.53.27-1.05.34-1.55l.02-.16-.13-.1c-.4-.3-.85-.59-1.34-.85l-.38-.21-.03.43c-.03.46-.11.93-.22,1.42l-.05.19.17.1c.43.26.82.55,1.17.85h0Z"></path>
        <path class="cls-3" d="m.37,8.2l.12.41.32-.28c.34-.3.74-.59,1.17-.85l.17-.1-.05-.19c-.12-.49-.19-.97-.22-1.42l-.03-.43-.38.21c-.49.27-.94.55-1.34.85l-.13.1.02.16c.07.5.19,1.02.34,1.55h0Z"></path>
        <path class="cls-3" d="m21.85,13.96l-.12-.41-.32.28c-.34.3-.73.58-1.15.83l-.17.1.05.19c.12.5.2.98.23,1.42l.03.43.38-.21c.48-.26.92-.55,1.32-.84l.13-.1-.02-.16c-.07-.5-.19-1.02-.34-1.55l-.02.02Z"></path>
        <path class="cls-3" d="m20.67,11.09l-.07-.13c-.26-.49-.55-.98-.85-1.45l-.27-.41-.21.44c-.13.29-.29.58-.44.87-.02-.8-.07-1.59-.17-2.36v-.07l-.06-.06c-.48-.61-1-1.22-1.56-1.8.32.09.63.19.93.3l.46.17-.1-.48c-.12-.56-.26-1.11-.42-1.62l-.04-.14-.14-.04c-.52-.16-1.07-.3-1.63-.42l-.48-.1.17.46c.11.3.21.61.3.92-.58-.55-1.19-1.07-1.81-1.55l-.06-.05h-.07c-.77-.1-1.57-.15-2.37-.18.29-.16.58-.31.87-.44l.45-.21-.41-.27c-.47-.31-.96-.59-1.45-.85l-.13-.07-.13.07c-.46.25-.94.53-1.42.84l-.41.27.45.21c.3.14.59.29.89.45-.81.02-1.62.07-2.41.17h-.08l-.06.06c-.61.48-1.22,1-1.8,1.55.09-.32.19-.63.3-.92l.17-.46-.48.1c-.57.12-1.11.26-1.63.42l-.14.04-.04.14c-.16.51-.3,1.06-.42,1.62l-.1.48.46-.17c.3-.11.61-.21.93-.3-.55.58-1.08,1.18-1.56,1.79l-.05.06v.07c-.1.77-.16,1.57-.18,2.37-.16-.29-.31-.59-.45-.87l-.21-.44-.27.41c-.32.49-.61.97-.86,1.44l-.07.13.07.13c.25.47.54.96.86,1.44l.27.41.21-.44c.14-.29.29-.58.45-.87.02.8.07,1.6.17,2.37v.07l.06.06c.48.61,1,1.21,1.56,1.79-.32-.09-.63-.19-.93-.3l-.46-.17.1.48c.12.56.26,1.11.42,1.62l.04.14.14.04c.52.16,1.07.3,1.63.42l.48.1-.17-.46c-.11-.3-.21-.61-.3-.93.59.56,1.19,1.08,1.8,1.55l.06.05h.07c.77.1,1.57.16,2.38.18-.29.16-.59.31-.88.44l-.45.21.41.27c.48.31.97.6,1.45.85l.13.07.13-.07c.48-.26.97-.54,1.45-.85l.41-.27-.45-.21c-.29-.13-.58-.29-.88-.44.81-.02,1.6-.07,2.38-.17h.08l.06-.06c.61-.48,1.21-1,1.8-1.55-.09.32-.19.63-.3.93l-.17.46.48-.1c.57-.12,1.11-.26,1.63-.42l.14-.04.04-.14c.16-.51.3-1.06.42-1.62l.1-.48-.46.17c-.3.11-.61.21-.93.3.55-.58,1.08-1.18,1.56-1.79l.05-.06v-.07c.1-.78.16-1.58.18-2.4.16.3.32.59.45.89l.21.44.27-.41c.31-.48.59-.95.84-1.42,0,0,.07-.13.07-.13Zm-4.33,4.89c-.05.05-.1.1-.15.15-.05.04-.09.09-.14.13l-.05.04c-.8.19-1.62.33-2.46.42h-.08l-.06.06c-.66.53-1.35,1.01-2.04,1.44h-.51c-.69-.43-1.38-.91-2.04-1.44l-.06-.05h-.08c-.84-.1-1.67-.24-2.46-.43l-.04-.04s-.09-.09-.14-.13l-.18-.18c-.19-.79-.33-1.62-.42-2.45v-.08l-.06-.06c-.53-.66-1.01-1.34-1.44-2.03v-.5c.43-.69.92-1.38,1.45-2.03l.05-.06v-.08c.1-.84.24-1.66.43-2.45l.18-.18.16-.16.02-.02c.79-.19,1.62-.33,2.47-.42h.08l.06-.06c.66-.53,1.35-1.01,2.04-1.44h.53c.69.43,1.37.91,2.03,1.44l.06.05h.08c.84.1,1.66.24,2.46.43l.02.02c.05.05.11.1.16.16.05.05.11.11.16.16l.02.02c.19.79.33,1.61.42,2.45v.08l.06.06c.53.65,1.01,1.33,1.44,2.02v.52c-.43.69-.92,1.38-1.45,2.03l-.05.06v.08c-.1.84-.24,1.66-.43,2.46l-.03.03v-.02Z"></path>
        <path class="cls-3" d="m7.51,20.17l-.1-.17-.19.05c-.49.12-.97.19-1.43.22l-.43.03.21.37c.27.48.55.93.86,1.33l.1.13.16-.02c.49-.07,1.01-.18,1.55-.34l.41-.12-.28-.32c-.3-.34-.59-.73-.85-1.16h-.01Z"></path>
        <path class="cls-3" d="m14.73,1.98l.1.17.19-.05c.5-.12.98-.2,1.43-.23l.43-.03-.21-.37c-.27-.48-.56-.93-.86-1.34l-.1-.13-.16.02c-.5.07-1.02.19-1.55.34l-.41.12.28.32c.3.34.59.74.85,1.17h0Z"></path>
        <path class="cls-3" d="m7.22,2.09l.19.05.1-.17c.26-.42.54-.81.84-1.15l.28-.32-.41-.12c-.53-.15-1.05-.27-1.55-.34l-.16-.02-.1.13c-.3.4-.58.84-.85,1.32l-.21.38.43.03c.44.03.92.1,1.43.23v-.02Z"></path>
        <path class="cls-3" d="m15.02,20.05l-.19-.05-.1.17c-.26.43-.55.82-.85,1.16l-.28.32.41.12c.55.16,1.07.27,1.55.34l.16.02.1-.13c.3-.4.59-.85.86-1.33l.21-.37-.43-.03c-.46-.03-.94-.1-1.43-.22h0Z"></path>
      </g>
    </g>
  </g>
</svg>
